<?xml version="1.0" encoding="UTF-8"?>
<svg version="1.1" xmlns="http://www.w3.org/2000/svg" width="32" height="32">
<path d="M0 0 C10.56 0 21.12 0 32 0 C32 10.56 32 21.12 32 32 C21.44 32 10.88 32 0 32 C0 21.44 0 10.88 0 0 Z " fill="#242424" transform="translate(0,0)"/>
<path d="M0 0 C1.66611905 -0.042721 3.33382885 -0.04063832 5 0 C6.96822886 1.96822886 6.66248381 5.34808709 7 8 C7.66 5.36 8.32 2.72 9 0 C10.98 0 12.96 0 15 0 C16.1577506 3.47325181 16.06866652 6.36067448 16 10 C16.66 10 17.32 10 18 10 C18.33 6.7 18.66 3.4 19 0 C20.65 0 22.3 0 24 0 C23.47606294 5.86809507 22.23891142 10.54873741 20 16 C18.02 16 16.04 16 14 16 C13.34 13.69 12.68 11.38 12 9 C11.34 11.31 10.68 13.62 10 16 C8.02 16 6.04 16 4 16 C3.32815382 13.89748139 2.66269032 11.79292237 2 9.6875 C1.443125 7.92986328 1.443125 7.92986328 0.875 6.13671875 C0 3 0 3 0 0 Z " fill="#BDBEB0" transform="translate(4,8)"/>
</svg>
